<svg xmlns="http://www.w3.org/2000/svg" version="1.1" xmlns:xlink="http://www.w3.org/1999/xlink" width="1000" height="1000"><style>
    #light-icon {
      display: inline;
    }
    #dark-icon {
      display: none;
    }

    @media (prefers-color-scheme: dark) {
      #light-icon {
        display: none;
      }
      #dark-icon {
        display: inline;
      }
    }
  </style><g id="light-icon"><svg xmlns="http://www.w3.org/2000/svg" version="1.1" xmlns:xlink="http://www.w3.org/1999/xlink" width="1000" height="1000"><g><g transform="matrix(34.48275862068966,0,0,34.48275862068966,-5.684341886080802e-14,-5.684341886080802e-14)"><svg xmlns="http://www.w3.org/2000/svg" width="29" height="29" viewBox="0 0 29 29" fill="none"><path d="M21.1458 22.9583H10.875C9.30641 22.9579 7.76884 22.5213 6.43409 21.6974C5.09935 20.8734 4.02002 19.6946 3.31671 18.2925C2.6134 16.8904 2.31382 15.3204 2.45145 13.7579C2.58907 12.1953 3.15849 10.7018 4.09605 9.4443C5.03362 8.18676 6.30241 7.2147 7.76063 6.63675C9.21886 6.05879 10.8091 5.89771 12.3536 6.17151C13.8981 6.44531 15.336 7.14319 16.5067 8.18718C17.6774 9.23117 18.5347 10.5801 18.9829 12.0833H21.1458C22.5879 12.0833 23.971 12.6562 24.9907 13.6759C26.0104 14.6957 26.5833 16.0787 26.5833 17.5208C26.5833 18.9629 26.0104 20.346 24.9907 21.3657C23.971 22.3854 22.5879 22.9583 21.1458 22.9583Z" fill="#111111" stroke="#111111" stroke-width="2" stroke-linecap="round" stroke-linejoin="round"></path><path d="M9.60511 16.4659V16.125L12.3494 14.7273V15.2727L10.2443 16.2869L10.2614 16.2528V16.3381L10.2443 16.304L12.3494 17.3182V17.8636L9.60511 16.4659ZM16.6454 13.4318L15.2392 18.6562H14.7789L16.1852 13.4318H16.6454ZM20.1307 16.4659L17.3864 17.8636V17.3182L19.4915 16.304L19.4744 16.3381V16.2528L19.4915 16.2869L17.3864 15.2727V14.7273L20.1307 16.125V16.4659Z" fill="#C0C0C0"></path></svg></g></g></svg></g><g id="dark-icon"><svg xmlns="http://www.w3.org/2000/svg" version="1.1" xmlns:xlink="http://www.w3.org/1999/xlink" width="1000" height="1000"><g><g transform="matrix(34.48275862068966,0,0,34.48275862068966,-5.684341886080802e-14,-5.684341886080802e-14)"><svg xmlns="http://www.w3.org/2000/svg" width="29" height="29" viewBox="0 0 29 29" fill="none"><path d="M21.1458 22.9583H10.875C9.30641 22.9579 7.76884 22.5213 6.43409 21.6974C5.09935 20.8734 4.02002 19.6946 3.31671 18.2925C2.6134 16.8904 2.31382 15.3204 2.45145 13.7579C2.58907 12.1953 3.15849 10.7018 4.09605 9.4443C5.03362 8.18676 6.30241 7.2147 7.76063 6.63675C9.21886 6.05879 10.8091 5.89771 12.3536 6.17151C13.8981 6.44531 15.336 7.14319 16.5067 8.18718C17.6774 9.23117 18.5347 10.5801 18.9829 12.0833H21.1458C22.5879 12.0833 23.971 12.6562 24.9907 13.6759C26.0104 14.6957 26.5833 16.0787 26.5833 17.5208C26.5833 18.9629 26.0104 20.346 24.9907 21.3657C23.971 22.3854 22.5879 22.9583 21.1458 22.9583Z" fill="white" stroke="#111111" stroke-width="2" stroke-linecap="round" stroke-linejoin="round"></path><path d="M9.60511 16.4659V16.125L12.3494 14.7273V15.2727L10.2443 16.2869L10.2614 16.2528V16.3381L10.2443 16.304L12.3494 17.3182V17.8636L9.60511 16.4659ZM16.6454 13.4318L15.2392 18.6562H14.7789L16.1852 13.4318H16.6454ZM20.1307 16.4659L17.3864 17.8636V17.3182L19.4915 16.304L19.4744 16.3381V16.2528L19.4915 16.2869L17.3864 15.2727V14.7273L20.1307 16.125V16.4659Z" fill="#727272"></path></svg></g></g></svg></g></svg>