<svg width="33" height="33" viewBox="0 0 33 33" fill="none" xmlns="http://www.w3.org/2000/svg">
<rect width="33" height="33" fill="#22D3EE"/>
<path d="M23.1458 24.9583H12.875C11.3064 24.9579 9.76884 24.5213 8.43409 23.6974C7.09935 22.8734 6.02002 21.6946 5.31671 20.2925C4.6134 18.8904 4.31382 17.3204 4.45145 15.7579C4.58907 14.1953 5.15849 12.7018 6.09605 11.4443C7.03362 10.1868 8.30241 9.2147 9.76063 8.63675C11.2189 8.05879 12.8091 7.89771 14.3536 8.17151C15.8981 8.44531 17.336 9.14319 18.5067 10.1872C19.6774 11.2312 20.5347 12.5801 20.9829 14.0833H23.1458C24.5879 14.0833 25.971 14.6562 26.9907 15.6759C28.0104 16.6957 28.5833 18.0787 28.5833 19.5208C28.5833 20.9629 28.0104 22.346 26.9907 23.3657C25.971 24.3854 24.5879 24.9583 23.1458 24.9583Z" fill="white" stroke="#111111" stroke-width="2" stroke-linecap="round" stroke-linejoin="round"/>
<path d="M11.6051 19.4659V19.125L14.3494 17.7273V18.2727L12.2443 19.2869L12.2614 19.2528V19.3381L12.2443 19.304L14.3494 20.3182V20.8636L11.6051 19.4659ZM18.6454 16.4318L17.2392 21.6562H16.7789L18.1852 16.4318H18.6454ZM22.1307 19.4659L19.3864 20.8636V20.3182L21.4915 19.304L21.4744 19.3381V19.2528L21.4915 19.2869L19.3864 18.2727V17.7273L22.1307 19.125V19.4659Z" fill="#727272"/>
</svg>
